<?xml version="1.0" standalone="no"?><!DOCTYPE svg PUBLIC "-//W3C//DTD SVG 1.1//EN" "http://www.w3.org/Graphics/SVG/1.1/DTD/svg11.dtd"><svg class="icon" height="512" viewBox="0 0 1024 1024" version="1.1" xmlns="http://www.w3.org/2000/svg"><path d="M864.015653 878.884571a498.366171 498.366171 0 0 1-351.553829 144.822858H512.139995A493.9776 493.9776 0 0 1 160.264338 179.346286a76.068571 76.068571 0 0 1 106.964115 0 75.073829 75.073829 0 0 1 0 106.496 342.718171 342.718171 0 0 0 0 486.838857 348.3648 348.3648 0 0 0 489.852342 0 342.747429 342.747429 0 0 0 0-486.838857 75.073829 75.073829 0 0 1 0-106.496 76.068571 76.068571 0 0 1 106.964115 0 492.544 492.544 0 0 1-0.029257 699.538285zM512.139995 614.4a87.771429 87.771429 0 0 1-87.771428-87.771429V87.771429a87.771429 87.771429 0 0 1 175.542857 0v438.857142a87.771429 87.771429 0 0 1-87.771429 87.771429z" fill="#0BBE06" /></svg>